<?xml version="1.0" encoding="utf-8"?>
<!-- Generator: Adobe Illustrator 22.1.0, SVG Export Plug-In . SVG Version: 6.00 Build 0)  -->
<svg version="1.1" 
	xmlns="http://www.w3.org/2000/svg" 
	xmlns:xlink="http://www.w3.org/1999/xlink" x="0px" y="0px" viewBox="0 0 886.5 248.3" style="enable-background:new 0 0 886.5 248.3;" xml:space="preserve">
	<style type="text/css">
		.st0{fill-rule:evenodd;clip-rule:evenodd;fill:#FFDD00;}
	</style>
	<g stroke="null" id="svg_1">
		<path class="st0" d="M867,185.2v38.1c-15.7,6.7-32.5,10-48.1,10c-34.4-0.1-63.3-16.7-63.3-49.3l0-72.5h-23.8l0-13.6L800,30.5h7.2
			v45.9h60.4v35l-60.5,0.2v52.9C807.1,209.2,855.5,190.1,867,185.2L867,185.2L867,185.2z" id="svg_2"/>
		<path class="st0" d="M726.5,122.7c-3.7-11.7-9.4-21.7-17.1-29.8c-7.7-8.2-17.1-14.6-28.3-19.5c-11.2-4.8-23.3-7.2-36.3-7.2
			c-16.2,0-30.9,3.6-44.2,10.7c-13.4,7.1-23.9,17.1-31.5,29.9c-7.7,12.7-11.5,26.9-11.5,42.4c0,15.7,3.9,29.9,11.8,42.7
			c7.9,12.7,19,23.4,33.5,30.8c39,20,105.2,8.2,123.2-10.5l0-31.6l0,0c-17.5,12.1-92.4,40.3-112.5-18.8l115.9,0.2
			C729.8,147.4,730.3,134.5,726.5,122.7z M614.4,131c1.9-20,20.3-33.2,34.3-33c16.2,0.2,33.3,12.3,35,33H614.4z" id="svg_3"/>
		<path class="st0" d="M220.7,122.7c-3.7-11.7-9.4-21.7-17.1-29.8c-7.7-8.2-17.1-14.6-28.3-19.5c-11.2-4.8-23.3-7.2-36.3-7.2
			c-16.2,0-30.9,3.6-44.2,10.7C81.4,84.1,71,94.1,63.3,106.9c-7.7,12.7-11.5,26.9-11.5,42.4c0,15.7,3.9,29.9,11.8,42.7
			c7.9,12.7,19,23.4,33.5,30.8c39,20,105.2,8.2,123.2-10.5l0-31.6l0,0c-17.5,12.1-92.4,40.3-112.5-18.8l115.9,0.2
			C223.9,147.4,224.4,134.5,220.7,122.7z M108.5,131c1.9-20,20.3-33.2,34.3-33c16.2,0.2,33.3,12.3,35,33H108.5z" id="svg_4"/>
		<path class="st0" d="M536.4,107.7c-6.5-11.9-15.6-21.1-27.3-27.6c-11.7-6.5-25-9.8-39.8-9.8c-7.7,0-14.8,0.9-21.2,2.8
			c-6.4,1.9-12.9,4.8-19.5,8.8V30.6h-53.2v198.5h53.2l0-14.6c13.9,9.7,28.6,14.6,44.1,14.6c21.4,0,39-7.5,52.8-22.4
			c13.8-14.9,20.7-34.1,20.7-57.5C546.2,133.5,542.9,119.7,536.4,107.7z M485.9,184.1c-6.7,8.5-16,12.8-27.9,12.8
			c-9.3,0-19.1-4.3-29.4-12.9v-70.9h0c10.3-7.1,19.8-10.6,28.7-10.6c11.2,0,20.4,3.8,27.7,11.4c7.3,7.7,11,19.2,11,34.6
			C496,163.7,492.6,175.6,485.9,184.1z" id="svg_5"/>
		<path class="st0" d="M255.3,229.1v-94.4h-21.7V99.3h21.7c1.2-61.2,54.7-75.1,108.1-66.2l0,36c-12.5-1.4-53.1-5.5-52.9,20.7l0.1,9.6
			h24.3v35.4H309v94.4H255.3L255.3,229.1z" id="svg_6"/>
		<polygon class="st0" points="135,19 141.2,37.1 160.2,36.7 145,48.2 151.3,66.3 135.7,55.3 120.5,66.9 126.1,48.6 110.5,37.6 
			129.5,37.3 135,19 	" id="svg_7"/>
		<polygon class="st0" points="65.5,39.5 80,52 96.2,42.1 88.9,59.7 103.4,72.2 84.4,70.5 77.1,88.2 72.7,69.5 53.7,68 70,58.1 
			65.5,39.5 	" id="svg_8"/>
		<polygon class="st0" points="17.2,93.4 36.1,96.4 44.6,79.4 47.7,98.2 66.6,101.1 49.6,109.8 52.7,128.6 39.2,115.1 22.2,123.8 
			30.8,106.8 17.2,93.4 	" id="svg_9"/>
	</g>
</svg>
